<?xml version="1.0" standalone="no"?>
<!DOCTYPE svg PUBLIC "-//W3C//DTD SVG 20010904//EN"
 "http://www.w3.org/TR/2001/REC-SVG-20010904/DTD/svg10.dtd">
<svg version="1.0" xmlns="http://www.w3.org/2000/svg"
 width="16.000000pt" height="16.000000pt" viewBox="0 0 16.000000 16.000000"
 preserveAspectRatio="xMidYMid meet">
<metadata>
Created by potrace 1.11, written by Peter Selinger 2001-2013
</metadata>
<g transform="translate(0.000000,16.000000) scale(0.006154,-0.006154)"
fill="#000000" stroke="none">
<path d="M334 1986 c-17 -7 -42 -29 -55 -47 l-24 -34 -3 -570 c-2 -314 0 -589
3 -612 8 -56 57 -109 109 -119 32 -5 91 8 330 75 160 45 320 91 356 102 36 10
155 44 265 75 220 62 263 81 290 127 17 29 19 57 20 287 1 140 -2 265 -6 277
-8 21 -9 21 -61 6 -107 -29 -98 -5 -98 -259 l0 -222 -47 -12 c-27 -6 -261 -72
-521 -146 -260 -74 -474 -134 -475 -134 -1 0 -2 234 -2 520 0 286 1 520 2 520
1 0 112 -31 247 -70 136 -38 251 -70 257 -70 5 0 26 15 45 34 29 28 71 49 143
72 8 2 12 7 9 10 -10 9 -672 195 -713 200 -23 2 -53 -2 -71 -10z"/>
<path d="M2090 1973 c-47 -13 -114 -33 -150 -43 -36 -11 -243 -69 -460 -131
-217 -61 -412 -120 -432 -132 -68 -37 -72 -57 -72 -354 -1 -162 3 -266 9 -272
6 -6 35 -1 80 13 l70 22 5 224 5 225 285 81 c443 127 713 202 735 206 19 3 19
-6 20 -510 0 -283 -2 -515 -5 -517 -3 -1 -106 26 -230 61 -303 86 -271 82
-313 42 -30 -29 -73 -51 -146 -74 -8 -2 -12 -7 -9 -10 11 -10 704 -204 732
-204 36 0 88 31 112 68 18 25 19 62 22 622 l2 595 -22 39 c-26 44 -79 76 -123
75 -16 -1 -68 -12 -115 -26z"/>
</g>
</svg>
