<?xml version="1.0" encoding="UTF-8"?>
<svg width="52px" height="52px" viewBox="0 0 52 52" version="1.1" xmlns="http://www.w3.org/2000/svg" xmlns:xlink="http://www.w3.org/1999/xlink">
    <!-- Generator: Sketch 41.2 (35397) - http://www.bohemiancoding.com/sketch -->
    <desc>Created with Sketch.</desc>
    <defs></defs>
    <g id="slices" stroke="none" stroke-width="1" fill="none" fill-rule="evenodd">
        <g id="svg" transform="translate(-367.000000, -594.000000)" fill="#3AACD2">
            <g id="u_ico_resume_5" transform="translate(367.000000, 594.000000)">
                <path d="M26,10 L14,14 L14,27 C14,36 26,41 26,41 C26,41 38,36 38,27 L38,14 L26,10 Z M26,12.108 L36,15.441 L36,27 C36,33.342 28.465,37.579 26,38.794 C23.532,37.577 16,33.341 16,27 L16,15.441 L26,12.108 Z M29.9998,21.4997 C29.9998,19.2907 28.2088,17.4997 25.9998,17.4997 C25.6948,17.4997 25.3818,17.5337 25.0648,17.6057 C23.6298,17.9307 22.4638,19.0887 22.1178,20.5187 C21.7318,22.1247 22.3268,23.5927 23.4028,24.5187 L22.2218,30.8157 C22.1068,31.4307 22.5788,31.9997 23.2048,31.9997 L28.7948,31.9997 C29.4208,31.9997 29.8938,31.4307 29.7778,30.8157 L28.5978,24.5187 C29.4488,23.7857 29.9998,22.7127 29.9998,21.4997 Z M27.5898,29.9997 L24.4098,29.9997 L25.3678,24.8877 C25.4998,24.1867 25.2478,23.4687 24.7078,23.0037 C24.4258,22.7617 23.7998,22.0787 24.0628,20.9887 C24.2318,20.2887 24.8118,19.7137 25.5068,19.5567 C25.6718,19.5187 25.8378,19.4997 25.9998,19.4997 C27.1028,19.4997 27.9998,20.3967 27.9998,21.4997 C27.9998,22.2777 27.5568,22.7757 27.2918,23.0037 C26.7518,23.4687 26.4998,24.1867 26.6318,24.8877 L27.5898,29.9997 Z" id="Combined-Shape"></path>
            </g>
        </g>
    </g>
</svg>