<?xml version="1.0" encoding="UTF-8"?>
<svg width="52px" height="52px" viewBox="0 0 52 52" version="1.1" xmlns="http://www.w3.org/2000/svg" xmlns:xlink="http://www.w3.org/1999/xlink">
    <!-- Generator: Sketch 41.2 (35397) - http://www.bohemiancoding.com/sketch -->
    <desc>Created with Sketch.</desc>
    <defs></defs>
    <g id="slices" stroke="none" stroke-width="1" fill="none" fill-rule="evenodd">
        <g id="svg" transform="translate(-169.000000, -594.000000)" fill="#3AACD2">
            <g id="u_ico_resume_2" transform="translate(169.000000, 594.000000)">
                <path d="M25,32.9409 C20.507,32.4409 17,28.6249 17,23.9999 C17,19.0369 21.037,14.9999 26,14.9999 C30.963,14.9999 35,19.0369 35,23.9999 C35,28.6249 31.493,32.4409 27,32.9409 L27,24.9999 L29,24.9999 L29,22.9999 L23,22.9999 L23,24.9999 L25,24.9999 L25,32.9409 Z M26,12.9999 C19.925,12.9999 15,17.9249 15,23.9999 C15,30.0749 19.925,34.9999 26,34.9999 C32.075,34.9999 37,30.0749 37,23.9999 C37,17.9249 32.075,12.9999 26,12.9999 Z M21.5,39 L30.5,39 L30.5,37 L21.5,37 L21.5,39 Z M21.5,43 L30.5,43 L30.5,41 L21.5,41 L21.5,43 Z M40,25 L44,25 L44,23 L40,23 L40,25 Z M8,25 L12,25 L12,23 L8,23 L8,25 Z M25,10 L27,10 L27,6 L25,6 L25,10 Z M38.021,10.5649 L35.192,13.3939 L36.606,14.8079 L39.435,11.9789 L38.021,10.5649 Z M13.979,10.5649 L12.565,11.9789 L15.394,14.8079 L16.808,13.3939 L13.979,10.5649 Z" id="Combined-Shape"></path>
            </g>
        </g>
    </g>
</svg>