<?xml version="1.0" encoding="UTF-8"?>
<svg width="52px" height="52px" viewBox="0 0 52 52" version="1.1" xmlns="http://www.w3.org/2000/svg" xmlns:xlink="http://www.w3.org/1999/xlink">
    <!-- Generator: Sketch 41.2 (35397) - http://www.bohemiancoding.com/sketch -->
    <desc>Created with Sketch.</desc>
    <defs></defs>
    <g id="slices" stroke="none" stroke-width="1" fill="none" fill-rule="evenodd">
        <g id="svg" transform="translate(-236.000000, -594.000000)" fill="#3AACD2">
            <g id="u_ico_resume_3" transform="translate(236.000000, 594.000000)">
                <path d="M35,34.5 C32.794,34.5 31,32.706 31,30.5 C31,28.294 32.794,26.5 35,26.5 C37.206,26.5 39,28.294 39,30.5 C39,32.706 37.206,34.5 35,34.5 M17.5,38.5 C16.673,38.5 16,37.827 16,37 C16,36.173 16.673,35.5 17.5,35.5 C18.327,35.5 19,36.173 19,37 C19,37.827 18.327,38.5 17.5,38.5 M16,24.5 C14.346,24.5 13,23.154 13,21.5 C13,19.846 14.346,18.5 16,18.5 C17.654,18.5 19,19.846 19,21.5 C19,23.154 17.654,24.5 16,24.5 M33,14 C34.103,14 35,14.897 35,16 C35,17.103 34.103,18 33,18 C31.897,18 31,17.103 31,16 C31,14.897 31.897,14 33,14 M35,24.5 C32.736,24.5 30.768,25.754 29.746,27.604 L20.781,22.886 C20.909,22.443 21,21.984 21,21.5 C21,21.297 20.964,21.104 20.94,20.907 L29.571,18.03 C30.269,19.205 31.535,20 33,20 C35.209,20 37,18.209 37,16 C37,13.791 35.209,12 33,12 C30.791,12 29,13.791 29,16 C29,16.037 29.01,16.072 29.011,16.109 L20.312,19.009 C19.446,17.516 17.85,16.5 16,16.5 C13.238,16.5 11,18.739 11,21.5 C11,24.261 13.238,26.5 16,26.5 C17.558,26.5 18.932,25.772 19.849,24.656 L29.087,29.518 C29.034,29.838 29,30.165 29,30.5 C29,30.884 29.04,31.258 29.108,31.621 L20.283,34.899 C19.645,34.054 18.641,33.5 17.5,33.5 C15.567,33.5 14,35.067 14,37 C14,38.933 15.567,40.5 17.5,40.5 C19.433,40.5 21,38.933 21,37 C21,36.923 20.982,36.851 20.978,36.775 L29.807,33.496 C30.844,35.29 32.778,36.5 35,36.5 C38.313,36.5 41,33.813 41,30.5 C41,27.187 38.313,24.5 35,24.5" id="Page-1"></path>
            </g>
        </g>
    </g>
</svg>