<?xml version="1.0" encoding="UTF-8"?>
<svg width="52px" height="52px" viewBox="0 0 52 52" version="1.1" xmlns="http://www.w3.org/2000/svg" xmlns:xlink="http://www.w3.org/1999/xlink">
    <!-- Generator: Sketch 41.2 (35397) - http://www.bohemiancoding.com/sketch -->
    <desc>Created with Sketch.</desc>
    <defs></defs>
    <g id="slices" stroke="none" stroke-width="1" fill="none" fill-rule="evenodd">
        <g id="svg" transform="translate(-106.000000, -594.000000)" fill="#3AACD2">
            <g id="u_ico_resume_1" transform="translate(106.000000, 594.000000)">
                <path d="M11,22 L17,22 L17,16 L11,16 L11,22 Z M17,14 L11,14 C9.896,14 9,14.896 9,16 L9,22 C9,23.104 9.896,24 11,24 L17,24 C18.104,24 19,23.104 19,22 L19,16 C19,14.896 18.104,14 17,14 Z M29,14 L23,14 C21.896,14 21,14.896 21,16 L21,22 C21,23.104 21.896,24 23,24 L29,24 C30.104,24 31,23.104 31,22 L31,16 C31,14.896 30.104,14 29,14 Z M35,24 L41,24 C42.104,24 43,23.104 43,22 L43,16 C43,14.896 42.104,14 41,14 L35,14 C33.896,14 33,14.896 33,16 L33,22 C33,23.104 33.896,24 35,24 Z M17,26 L11,26 C9.896,26 9,26.896 9,28 L9,34 C9,35.104 9.896,36 11,36 L17,36 C18.104,36 19,35.104 19,34 L19,28 C19,26.896 18.104,26 17,26 Z M29,26 L23,26 C21.896,26 21,26.896 21,28 L21,34 C21,35.104 21.896,36 23,36 L29,36 C30.104,36 31,35.104 31,34 L31,28 C31,26.896 30.104,26 29,26 Z M43,34 L43,31 L41,31 L41,34 L38,34 L38,36 L41,36 L41,39 L43,39 L43,36 L46,36 L46,34 L43,34 Z M35,28 L41,28 L41,29 L43,29 L43,28 C43,26.896 42.104,26 41,26 L35,26 C33.896,26 33,26.896 33,28 L33,34 C33,35.104 33.896,36 35,36 L36,36 L36,34 L35,34 L35,28 Z M23,34 L29,34 L29,28 L23,28 L23,34 Z M11,34 L17,34 L17,28 L11,28 L11,34 Z M35,22 L41,22 L41,16 L35,16 L35,22 Z M23,22 L29,22 L29,16 L23,16 L23,22 Z" id="Combined-Shape"></path>
            </g>
        </g>
    </g>
</svg>