<?xml version="1.0" encoding="UTF-8"?>
<svg width="52px" height="52px" viewBox="0 0 52 52" version="1.1" xmlns="http://www.w3.org/2000/svg" xmlns:xlink="http://www.w3.org/1999/xlink">
    <!-- Generator: Sketch 41.2 (35397) - http://www.bohemiancoding.com/sketch -->
    <desc>Created with Sketch.</desc>
    <defs></defs>
    <g id="slices" stroke="none" stroke-width="1" fill="none" fill-rule="evenodd">
        <g id="svg" transform="translate(-303.000000, -594.000000)" fill="#3AACD2">
            <g id="u_ico_resume_4" transform="translate(303.000000, 594.000000)">
                <path d="M26,27 C24.897,27 24,26.103 24,25 C24,23.897 24.897,23 26,23 C27.103,23 28,23.897 28,25 C28,26.103 27.103,27 26,27 M26,21 C23.791,21 22,22.791 22,25 C22,26.862 23.277,28.413 25,28.858 L25,40 L27,40 L27,28.858 C28.723,28.413 30,26.862 30,25 C30,22.791 28.209,21 26,21 Z M26,16 C21.029,16 17,20.029 17,25 C17,27.485 18.008,29.735 19.636,31.364 L21.053,29.947 C19.785,28.68 19,26.93 19,25 C19,21.14 22.141,18 26,18 C29.859,18 33,21.14 33,25 C33,26.93 32.215,28.68 30.947,29.947 L32.364,31.364 C33.992,29.735 35,27.485 35,25 C35,20.029 30.971,16 26,16 Z M26,11 C18.268,11 12,17.268 12,25 C12,28.866 13.567,32.366 16.101,34.899 L17.519,33.481 C15.346,31.309 14,28.309 14,25 C14,18.383 19.383,13 26,13 C32.617,13 38,18.383 38,25 C38,28.309 36.654,31.309 34.481,33.481 L35.899,34.899 C38.433,32.366 40,28.866 40,25 C40,17.268 33.732,11 26,11 Z" id="Combined-Shape"></path>
            </g>
        </g>
    </g>
</svg>