<?xml version="1.0" encoding="UTF-8"?>
<svg width="20px" height="20px" viewBox="0 0 20 20" version="1.1" xmlns="http://www.w3.org/2000/svg" xmlns:xlink="http://www.w3.org/1999/xlink">
    <!-- Generator: Sketch 41.2 (35397) - http://www.bohemiancoding.com/sketch -->
    <desc>Created with Sketch.</desc>
    <defs></defs>
    <g id="slices" stroke="none" stroke-width="1" fill="none" fill-rule="evenodd">
        <g id="svg" transform="translate(-182.000000, -494.000000)" fill="#505050">
            <g id="u_ico_social_linkedin" transform="translate(182.000000, 494.000000)">
                <path d="M7.95261937,6.64847737 L10.7353943,6.64847737 L10.7353943,7.92626432 L10.7742458,7.92626432 C11.1616744,7.19102653 12.1079673,6.41591742 13.5195276,6.41591742 C16.4575728,6.41591742 17,8.35300979 17,10.8706175 L17,16 L14.1005346,16 L14.1005346,11.4523576 C14.1005346,10.3679397 14.0807013,8.97285213 12.5929322,8.97285213 C11.0831563,8.97285213 10.8514055,10.1542948 10.8514055,11.3738397 L10.8514055,16 L7.95261937,16 L7.95261937,6.64847737 Z M4.68257018,2 C5.61011654,2 6.36391776,2.75510541 6.36391776,3.68466481 C6.36391776,4.6149046 5.61011654,5.37014609 4.68257018,5.37014609 C3.75271446,5.37014609 3,4.6149046 3,3.68466481 C3,2.75510541 3.75271446,2 4.68257018,2 Z M3.23120737,6.64847737 L6.13271039,6.64847737 L6.13271039,16 L3.23120737,16 L3.23120737,6.64847737 Z" id="Fill-1-Copy-2"></path>
            </g>
        </g>
    </g>
</svg>