<?xml version="1.0" encoding="UTF-8"?>
<svg width="52px" height="52px" viewBox="0 0 52 52" version="1.1" xmlns="http://www.w3.org/2000/svg" xmlns:xlink="http://www.w3.org/1999/xlink">
    <!-- Generator: Sketch 41.2 (35397) - http://www.bohemiancoding.com/sketch -->
    <desc>Created with Sketch.</desc>
    <defs></defs>
    <g id="slices" stroke="none" stroke-width="1" fill="none" fill-rule="evenodd">
        <g id="svg" transform="translate(-424.000000, -594.000000)" fill="#3AACD2">
            <g id="u_ico_resume_6" transform="translate(424.000000, 594.000000)">
                <path d="M34,27 L28,27 L23.5,27 L18,27 L18,25 L34,25 L34,27 Z M26.998,37.821 C26.961,38.478 26.415,39 25.75,39 C25.085,39 24.539,38.478 24.502,37.821 L25.322,29 L26.178,29 L26.998,37.821 Z M19,13 L22,13 L22,19.5 L24,19.5 L24,13 L25.5,13 L25.5,17.5 L27.5,17.5 L27.5,13 L33,13 L33,23 L19,23 L19,13 Z M35,23.239 L35,13 C35,11.896 34.104,11 33,11 L19,11 C17.896,11 17,11.896 17,13 L17,23.239 C16.407,23.562 16,24.184 16,24.907 L16,27.093 C16,28.146 16.854,29 17.907,29 L23.314,29 L22.5,37.75 C22.5,39.545 23.955,41 25.75,41 C27.545,41 29,39.545 29,37.75 L28.186,29 L34.093,29 C35.146,29 36,28.146 36,27.093 L36,24.907 C36,24.184 35.593,23.562 35,23.239 L35,23.239 Z" id="Page-1"></path>
            </g>
        </g>
    </g>
</svg>