<?xml version="1.0" encoding="UTF-8"?>
<svg width="20px" height="20px" viewBox="0 0 20 20" version="1.1" xmlns="http://www.w3.org/2000/svg" xmlns:xlink="http://www.w3.org/1999/xlink">
    <!-- Generator: Sketch 41.2 (35397) - http://www.bohemiancoding.com/sketch -->
    <desc>Created with Sketch.</desc>
    <defs></defs>
    <g id="slices" stroke="none" stroke-width="1" fill="none" fill-rule="evenodd">
        <g id="svg" transform="translate(-146.000000, -494.000000)" fill="#505050">
            <g id="u_ico_social_twitter" transform="translate(146.000000, 494.000000)">
                <path d="M18,5.4205504 C17.48494,5.66145555 16.93131,5.82432308 16.35038,5.89756179 C16.94328,5.52258255 17.39877,4.9289208 17.61325,4.22148803 C17.05822,4.56870743 16.44355,4.82083464 15.78926,4.9566068 C15.26538,4.36789162 14.5189,4 13.69276,4 C12.10656,4 10.82045,5.35631887 10.82045,7.02936562 C10.82045,7.26672696 10.84586,7.49796046 10.89486,7.71974381 C8.50772,7.59334798 6.39127,6.38734565 4.97468,4.5545322 C4.72744,5.00193802 4.58576,5.52228723 4.58576,6.0774839 C4.58576,7.12851843 5.09284,8.05574115 5.86354,8.59897746 C5.39272,8.58325181 4.94983,8.44696285 4.56259,8.22008527 C4.56231,8.23278392 4.56231,8.24540874 4.56231,8.25818121 C4.56231,9.72598239 5.55239,10.9502944 6.86636,11.2287048 C6.62535,11.2978829 6.3716,11.3349453 6.10966,11.3349453 C5.92458,11.3349453 5.74461,11.3158973 5.56926,11.2806069 C5.93473,12.484099 6.99551,13.3600103 8.25236,13.384374 C7.26935,14.1969398 6.03091,14.6811864 4.68516,14.6811864 C4.45332,14.6811864 4.2247,14.6668635 4,14.6388084 C5.27113,15.4984034 6.78089,16 8.40293,16 C13.68604,16 16.57515,11.3838203 16.57515,7.38064564 C16.57515,7.24930324 16.57235,7.1186253 16.56675,6.98868565 C17.12801,6.5615829 17.61493,6.02801824 18,5.4205504" id="Fill-1-Copy"></path>
            </g>
        </g>
    </g>
</svg>