<svg width="750" height="720" viewBox="0 0 750 720" xmlns="http://www.w3.org/2000/svg"><title>img_cloud_mobile</title><g fill="none" fill-rule="evenodd"><path d="M0 0h750v720H0z"/><circle cx="315.2" cy="314.5" r="314.5" transform="translate(57 46)" stroke-width="2" stroke="#3BACD3" opacity=".03"/><circle cx="276.2" cy="275.5" r="275.5" transform="translate(96 85)" stroke="#3BACD3" stroke-width="2" opacity=".05"/><circle cx="239.2" cy="238.5" r="238.4" transform="translate(133 122)" fill="#3BACD3" opacity=".05"/><circle cx="201.2" cy="201.5" r="200.6" transform="translate(171 159)" fill="#3BACD3" opacity=".05"/><circle cx="163.2" cy="162.5" r="162.5" transform="translate(209 198)" fill="#3BACD3" opacity=".05"/><circle cx="125.2" cy="124.5" r="124.5" transform="translate(247 236)" fill="#3BACD3" opacity=".05"/><circle cx="87.2" cy="86.5" r="86.5" transform="translate(285 274)" fill="#FFF"/><g stroke="#3BACD3" stroke-width="2" stroke-linecap="round" stroke-dasharray="0.1,13"><path d="M406 360h229.617M103 360h229.617M392.75 320.39l114.81-198.854M241.25 578.796L356.06 379.94M388.75 389.61l114.81 198.854M238.25 125.204L353.06 324.06"/></g><g transform="translate(201 86)"><path d="M34.8 68.2c-18.5 0-33.5-15-33.5-33.5s15-33.5 33.5-33.5 33.5 15 33.5 33.5-15 33.5-33.5 33.5z" fill="#FFF"/><path d="M34.8 1.6c18.2 0 33 14.8 33 33s-14.8 33-33 33-33-14.8-33-33 14.7-33 33-33zm0-1C16 .6.8 15.9.8 34.6s15.3 34 34 34 34-15.3 34-34-15.3-34-34-34z" fill="#3BACD3"/><circle fill-opacity=".1" fill="#3BACD3" cx="34.8" cy="34.6" r="33"/><path d="M20.728 39.523c-1.498 0-2.904-.592-4.07-1.738l-.943.776a7.19 7.19 0 0 0 5.087 2.073c2.7 0 4.218-1.48 4.218-3.57 0-2.22-1.443-3.2-4.44-4.05-2.09-.593-3.07-1.425-3.07-2.61 0-1.202.87-2.053 2.682-2.053 1.332 0 2.497.555 3.477 1.554l.887-.72c-1.147-1.24-2.663-1.943-4.384-1.943-2.497 0-3.884 1.332-3.884 3.238 0 1.683.98 2.793 3.865 3.607 2.626.74 3.644 1.46 3.644 3.052 0 1.387-1.167 2.386-3.072 2.386zm6.068-5.586c0 3.922 2.33 6.696 5.9 6.696 2.276 0 3.996-1 5.013-2.608l-.98-.61c-1.037 1.48-2.295 2.108-3.997 2.108-2.737 0-4.717-2.09-4.717-5.586 0-3.496 1.98-5.587 4.717-5.587 1.702 0 2.96.63 3.996 2.11l.98-.61c-1.018-1.61-2.738-2.61-5.014-2.61-3.57 0-5.9 2.775-5.9 6.697zM45.85 37.86h.776l4.643-8.16v10.71h1.182V27.464H51.27l-5.033 8.805-5.03-8.805H40.02V40.41h1.184V29.7l4.643 8.16z" fill="#3BACD3"/></g><g transform="translate(54 327)"><path d="M34.6 68.5c-18.5 0-33.5-15-33.5-33.5s15-33.5 33.5-33.5 33.5 15 33.5 33.5-15 33.5-33.5 33.5z" fill="#FFF"/><path d="M34.6 1.9c18.2 0 33 14.8 33 33s-14.8 33-33 33-33-14.8-33-33 14.8-33 33-33zm0-1C15.8.9.6 16.2.6 34.9s15.3 34 34 34 34-15.3 34-34-15.2-34-34-34z" fill="#3BACD3"/><circle fill-opacity=".1" fill="#3BACD3" cx="34.6" cy="35" r="33"/><path d="M16.936 40.91h8.047V39.84H18.12V34.75h6.012V33.68H18.12v-4.643h6.696v-1.072h-7.88V40.91zM31.29 27.964L26.205 40.91h1.313l1.35-3.532h6.142l1.35 3.533h1.312l-5.087-12.947H31.29zm.648 1.257l2.7 7.085h-5.4l2.7-7.085zm13.522 9.14h.777l4.643-8.16v10.71h1.184V27.964H50.88l-5.03 8.805-5.033-8.805h-1.184V40.91h1.184V30.2l4.643 8.16z" fill="#3BACD3"/></g><g transform="translate(211 548)"><path d="M34 68.3C15.5 68.3.5 53.3.5 34.8S15.5 1.3 34 1.3s33.5 15 33.5 33.5-15 33.5-33.5 33.5z" fill="#FFF"/><path d="M34 1.7c18.2 0 33 14.8 33 33s-14.8 33-33 33-33-14.8-33-33 14.8-33 33-33zm0-1C15.2.7 0 16 0 34.7s15.3 34 34 34 34-15.3 34-34S52.8.7 34 .7z" fill="#3BACD3"/><circle fill-opacity=".1" fill="#3BACD3" cx="34" cy="34.7" r="33"/><path d="M10.285 40.41h1.184v-5.918h6.067V33.42H11.47v-4.885h6.696v-1.072h-7.88V40.41zm9.84 0h7.845V39.34h-6.66V27.463h-1.184V40.41zm9.75 0h8.047V39.34H31.06V34.25h6.01V33.18h-6.01v-4.643h6.695v-1.072h-7.88V40.41zm10.377 0H48.3V39.34h-6.864V34.25h6.012V33.18h-6.012v-4.643h6.697v-1.072h-7.88V40.41zm13.337 0h1.183V28.536h4.144v-1.072h-9.49v1.072h4.162V40.41z" fill="#3BACD3"/></g><g transform="translate(487 585)"><path d="M34.7 68C16.2 68 1.2 53 1.2 34.5S16.2 1 34.7 1s33.5 15 33.5 33.5S53.1 68 34.7 68z" fill="#FFF"/><path d="M34.7 1.5c18.2 0 33 14.8 33 33s-14.8 33-33 33-33-14.8-33-33c-.1-18.2 14.7-33 33-33zm0-1C15.9.5.7 15.8.7 34.5s15.3 34 34 34 34-15.3 34-34-15.3-34-34-34z" fill="#3BACD3"/><circle fill-opacity=".1" fill="#3BACD3" cx="34.7" cy="34.5" r="33"/><path d="M15.678 33.937c0 3.922 2.33 6.696 5.9 6.696 2.276 0 3.997-1 5.014-2.608l-.98-.61c-1.036 1.48-2.294 2.108-3.996 2.108-2.738 0-4.717-2.09-4.717-5.586 0-3.496 1.978-5.587 4.716-5.587 1.702 0 2.96.63 3.996 2.11l.98-.61c-1.017-1.61-2.738-2.61-5.013-2.61-3.57 0-5.902 2.775-5.902 6.697zm21.865-2.775c0-2.312-1.665-3.7-4.625-3.7h-4.014v12.95h1.184v-5.57h1.943c.463 0 .888 0 1.314-.017l3.607 5.586h1.37l-3.718-5.752c1.924-.48 2.94-1.664 2.94-3.496zm-1.22 0c0 1.684-1.185 2.608-3.516 2.608h-2.72v-5.235h2.72c2.33 0 3.515.925 3.515 2.627zm9.748 6.697h.777l4.644-8.16v10.71h1.184V27.464H51.49l-5.03 8.805-5.032-8.805h-1.184V40.41h1.184V29.7l4.643 8.16z" fill="#3BACD3"/></g><g transform="translate(627 326)"><path d="M34.4 68C15.9 68 .9 53 .9 34.5S15.9 1 34.4 1s33.5 15 33.5 33.5S52.9 68 34.4 68z" fill="#FFF"/><path d="M34.4 1.4c18.2 0 33 14.8 33 33s-14.8 33-33 33-33-14.8-33-33 14.7-33 33-33zm0-1C15.6.4.4 15.7.4 34.4s15.3 34 34 34 34-15.3 34-34-15.3-34-34-34z" fill="#3BACD3"/><circle fill-opacity=".1" fill="#3BACD3" cx="34.4" cy="34.5" r="33"/><path d="M19.785 40.41h8.046V39.34h-6.86V34.25h6.01V33.18h-6.01v-4.643h6.695v-1.072h-7.88V40.41zM38.8 31.163c0-2.312-1.664-3.7-4.624-3.7h-4.014v12.95h1.184v-5.57h1.942c.463 0 .888 0 1.314-.017l3.607 5.586h1.368L35.86 34.66c1.923-.48 2.94-1.664 2.94-3.496zm-1.22 0c0 1.684-1.184 2.608-3.515 2.608h-2.72v-5.235h2.72c2.33 0 3.515.925 3.515 2.627zm12.45.26c0-2.61-1.74-3.96-4.792-3.96h-3.736v12.95h1.183V35.38h2.553c3.052 0 4.79-1.37 4.79-3.96zm-1.222 0c0 1.96-1.276 2.885-3.68 2.885h-2.443v-5.772h2.442c2.405 0 3.68.925 3.68 2.886z" fill="#3BACD3"/></g><g transform="translate(493 57)"><path d="M34.5 68.3C16 68.3 1 53.3 1 34.8S16 1.3 34.5 1.3 68 16.3 68 34.8 53 68.3 34.5 68.3z" fill="#FFF"/><path d="M34.5 1.7c18.2 0 33 14.8 33 33s-14.8 33-33 33-33-14.8-33-33 14.8-33 33-33zm0-1C15.7.7.5 16 .5 34.7s15.3 34 34 34 34-15.3 34-34-15.2-34-34-34z" fill="#3BACD3"/><circle fill-opacity=".1" fill="#3BACD3" cx="34.5" cy="34.8" r="33"/><path d="M17.426 40.41h8.047V39.34H18.61V34.25h6.012V33.18H18.61v-4.643h6.696v-1.072h-7.88V40.41zm19.016-9.248c0-2.312-1.665-3.7-4.624-3.7h-4.014v12.95h1.184v-5.57h1.942c.462 0 .888 0 1.313-.017l3.607 5.586h1.37L33.5 34.66c1.925-.48 2.942-1.664 2.942-3.496zm-1.22 0c0 1.684-1.184 2.608-3.515 2.608h-2.72v-5.235h2.72c2.33 0 3.514.925 3.514 2.627zm9.748 6.697h.777l4.643-8.16v10.71h1.184V27.464H50.39l-5.032 8.805-5.03-8.805h-1.185V40.41h1.184V29.7l4.643 8.16z" fill="#3BACD3"/></g><path d="M401.7 616.8h-42.3c-.5 0-.9-.4-.9-.9v-53.2c0-.5.4-.9.9-.9H393l9.6 9.6v44.4c0 .6-.4 1-.9 1z" fill="#FFF"/><path d="M401.7 616.8h-42.3c-.5 0-.9-.4-.9-.9v-53.2c0-.5.4-.9.9-.9H393l9.6 9.6v44.4c0 .6-.4 1-.9 1z" opacity=".05" fill="#3BACD3"/><path d="M401.7 616.8h-42.3c-.5 0-.9-.4-.9-.9v-53.2c0-.5.4-.9.9-.9h33.1c.3 0 .6.1.8.3l9 9c.2.2.3.5.3.8v43.9c0 .6-.4 1-.9 1z" stroke="#3BACD3"/><path d="M393 561.9v8.5c0 .6.5 1.1 1.1 1.1h8.5" stroke="#3BACD3"/><g fill="#3BACD3"><path d="M364 576h21v1h-21zM364 582h33v1h-33zM364 588h33v1h-33zM364 594h33v1h-33zM364 600h33v1h-33zM364 606h33v1h-33z"/></g><path d="M208.4 434.7c-.4-.3-.9-.3-1.4 0l-3.7 2.2-3.7-2.2c-.4-.3-.9-.3-1.4 0l-3.7 2.2-3.2-2.2c-.4-.3-.9-.3-1.4-.1l-4.1 2.3-3.7-2.2c-.4-.3-.9-.3-1.4 0l-3.7 2.2-3.7-2.2c-.4-.3-.9-.3-1.4 0l-3.7 2.2v53.7l3.7 2.2c.4.3.9.3 1.4 0l3.7-2.2 3.7 2.2c.4.3.9.3 1.4 0l3.7-2.2 4.1 2.3c.4.2 1 .2 1.4-.1l3.2-2.2 3.7 2.2c.4.3.9.3 1.4 0l3.7-2.2 3.7 2.2c.4.3.9.3 1.4 0l3.7-2.2v-53.7l-3.7-2.2z" fill="#FFF"/><path d="M208.4 434.7c-.4-.3-.9-.3-1.4 0l-3.7 2.2-3.7-2.2c-.4-.3-.9-.3-1.4 0l-3.7 2.2-3.2-2.2c-.4-.3-.9-.3-1.4-.1l-4.1 2.3-3.7-2.2c-.4-.3-.9-.3-1.4 0l-3.7 2.2-3.7-2.2c-.4-.3-.9-.3-1.4 0l-3.7 2.2v53.7l3.7 2.2c.4.3.9.3 1.4 0l3.7-2.2 3.7 2.2c.4.3.9.3 1.4 0l3.7-2.2 4.1 2.3c.4.2 1 .2 1.4-.1l3.2-2.2 3.7 2.2c.4.3.9.3 1.4 0l3.7-2.2 3.7 2.2c.4.3.9.3 1.4 0l3.7-2.2v-53.7l-3.7-2.2z" opacity=".05" fill="#3BACD3"/><g fill="#3BACD3"><path d="M172.5 444.5h35v1h-35zM173 452.5h20v1h-20zM199.4 452.7h9.2v1h-9.2zM173 458.5h20v1h-20zM199.4 459h9.2v1h-9.2zM173 464.5h20v1h-20zM199.4 465.3h9.2v1h-9.2zM198 471.5h10v1h-10z"/></g><path d="M208.4 434.7c-.4-.3-.9-.3-1.4 0l-3.7 2.2-3.7-2.2c-.4-.3-.9-.3-1.4 0l-3.7 2.2-3.2-2.2c-.4-.3-.9-.3-1.4-.1l-4.1 2.3-3.7-2.2c-.4-.3-.9-.3-1.4 0l-3.7 2.2-3.7-2.2c-.4-.3-.9-.3-1.4 0l-3.7 2.2v53.7l3.7 2.2c.4.3.9.3 1.4 0l3.7-2.2 3.7 2.2c.4.3.9.3 1.4 0l3.7-2.2 4.1 2.3c.4.2 1 .2 1.4-.1l3.2-2.2 3.7 2.2c.4.3.9.3 1.4 0l3.7-2.2 3.7 2.2c.4.3.9.3 1.4 0l3.7-2.2v-53.7l-3.7-2.2z" stroke="#3BACD3"/><text opacity=".3" fill="#3BACD3" font-family="Helvetica" font-size="11.518" transform="translate(168 434)"><tspan x="17.89" y="49.735" fill="#000">€</tspan></text><g><path d="M177.1 250.2v7.4h-8.6c-.7 0-1.3.6-1.3 1.3v18.3c0 5.5 4.4 9.9 9.9 9.9h33.3c4.2 0 7.7-3.4 7.7-7.7v-29.3c0-.7-.6-1.3-1.3-1.3h-38.3c-.9 0-1.4.6-1.4 1.4z" fill="#FFF"/><path d="M177.1 250.2v7.4h-8.6c-.7 0-1.3.6-1.3 1.3v18.3c0 5.5 4.4 9.9 9.9 9.9h33.3c4.2 0 7.7-3.4 7.7-7.7v-29.3c0-.7-.6-1.3-1.3-1.3h-38.3c-.9 0-1.4.6-1.4 1.4z" opacity=".1" fill="#3BACD3"/><path d="M177.1 250.2v7.4h-8.6c-.7 0-1.3.6-1.3 1.3v18.3c0 5.5 4.4 9.9 9.9 9.9h33.3c4.2 0 7.7-3.4 7.7-7.7v-29.3c0-.7-.6-1.3-1.3-1.3h-38.3c-.9 0-1.4.6-1.4 1.4zM177.1 257.9v20" stroke="#3BACD3"/><path opacity=".3" fill="#3BACD3" d="M201 253h12v12h-12zM182 253h16v1h-16zM182 258h16v1h-16zM182 263h16v1h-16zM182 269h32v1h-32zM182 274h32v1h-32zM182 279h32v1h-32z"/></g><g><path fill="#FFF" d="M357.8 108.8H413v35.5h-55.2z"/><path opacity=".05" fill="#3BACD3" d="M357.8 108.8H413v35.5h-55.2z"/><path stroke="#3BACD3" d="M357.8 108.8H413v35.5h-55.2z"/><path opacity=".3" fill="#3BACD3" d="M362 112h12v15h-12z"/><path d="M363.2 136.2c-1.2 5 7.3 5.1 6.2.3-.9-3.8-3.4 2.4 1.2 3.4 2.9.6 4.7-2.9 3.5-4.4-1.2-1.5-2.7 7.7 4.2 3.4" stroke="#3BACD3" opacity=".3"/><g fill="#3BACD3"><path d="M376 113h16v1h-16zM376 119h16v1h-16zM397 119h12v1h-12zM376 126h33v1h-33zM376 132h33v1h-33z"/></g><path d="M374 124.4c0-2.1-3.8-2.3-6-2.3s-6 .2-6 2.3v2.6h12v-2.6zM370.5 117.6c0 1.6-.6 4.4-2.9 4.4-2.5 0-2.9-2.8-2.9-4.4 0-1.6 1.3-2.9 2.9-2.9 1.6 0 2.9 1.3 2.9 2.9z" opacity=".3" fill="#3BACD3"/></g><g><path d="M536.6 303.7h-49.9c-.6 0-1-.5-1-1V273c0-.6.5-1 1-1h49.9c.6 0 1 .5 1 1v29.6c0 .6-.4 1.1-1 1.1z" fill="#FFF"/><path d="M536.6 303.7h-49.9c-.6 0-1-.5-1-1V273c0-.6.5-1 1-1h49.9c.6 0 1 .5 1 1v29.6c0 .6-.4 1.1-1 1.1z" opacity=".05" fill="#3BACD3"/><path d="M536.6 271.9h-49.9c-.6 0-1 .5-1 1v29.6c0 .6.5 1 1 1h49.9c.6 0 1-.5 1-1V273c0-.6-.4-1.1-1-1.1zM520 285.6c-.1 0-.2.1-.3.2l-.1.1-7.8 6.3c-.1.1-.3.1-.4 0l-7.8-6.3c0-.1-.1-.2-.1-.2-.1-.1-.2-.1-.4-.2L488 273.3h47.4L520 285.6zm-18 .7l-15 15v-27.2l15 12.2zm1.1.9l7.6 6.2c.3.2.6.3 1 .3s.7-.1 1-.3l7.6-6.1 15.1 15.1H488l15.1-15.2zm18.2-.8l15-12.2v27.2l-15-15z" fill="#3BACD3"/></g><g><path d="M581.2 435.1c0-1.7 1.3-3 3-3s3 1.3 3 3M613.9 435.1c0-1.7 1.3-3 3-3s3 1.3 3 3" fill="#FFF"/><path d="M581.2 435.1c0-1.7 1.3-3 3-3s3 1.3 3 3M613.9 435.1c0-1.7 1.3-3 3-3s3 1.3 3 3" opacity=".1" fill="#3BACD3"/><path d="M581.2 435.1c0-1.7 1.3-3 3-3s3 1.3 3 3M613.9 435.1c0-1.7 1.3-3 3-3s3 1.3 3 3" stroke="#3BACD3"/><path d="M625.5 481.3h-49.9c-.6 0-1-.5-1-1v-44.2c0-.6.5-1 1-1h49.9c.6 0 1 .5 1 1v44.2c0 .6-.5 1-1 1z" fill="#FFF"/><path d="M625.5 481.3h-49.9c-.6 0-1-.5-1-1v-44.2c0-.6.5-1 1-1h49.9c.6 0 1 .5 1 1v44.2c0 .6-.5 1-1 1z" opacity=".05" fill="#3BACD3"/><path d="M625.5 481.3h-49.9c-.6 0-1-.5-1-1v-44.2c0-.6.5-1 1-1h49.9c.6 0 1 .5 1 1v44.2c0 .6-.5 1-1 1zM574.5 450.3h52" stroke="#3BACD3"/><path opacity=".1" fill="#3BACD3" d="M575 435.3h51.5v14.5H575z"/><path d="M600.457 472.8h2.95v-16.648h-2.617l-4.9 3.567 1.69 1.854 2.877-2.07V472.8z" fill-opacity=".3" fill="#3BACD3"/></g><g transform="translate(310 298)"><circle fill="#3BACD3" cx="62.1" cy="62.4" r="61.9"/><path d="M90.8 43.4c-1.1-.8-2.4-1.1-3.7-.8l-20.9 5.7-4.7 1.3-6.5 1.8c-.7.2-1.3.5-1.8 1-.6.6-1.1 1.4-1.2 2.2 0 .3-.1.5-.1.8v13.7c0 .4.4.7.8.6l3.3-.9c.5-.1.8-.5.8-1V56l4.7-1.3 8.3-2.3 2.6-.7 15.1-4.1v29.5l-14.7-4c-.3-.1-.5 0-.7.2-.9 1.1-2.1 2-3.5 2.4l-1.6.4c-.2.1-.2.4 0 .4L87.1 82c.4.1.7.2 1.1.2 1 0 2-.4 2.8-1.1.9-.8 1.4-2 1.4-3.3v-31c0-1.2-.6-2.5-1.6-3.4zm-21 28.9c.6-.6 1.1-1.4 1.2-2.2 0-.3.1-.5.1-.8V55.6c0-.4-.4-.7-.8-.6l-3.3.9c-.5.1-.8.5-.8 1v11.9l-4.7 1.3-8.3 2.3-2.6.7-15.1 4.1V47.7l14.7 4c.3.1.5 0 .7-.2.9-1.1 2.1-2 3.5-2.4l1.6-.4c.2-.1.2-.4 0-.4l-20.1-5.5c-1.3-.4-2.6-.1-3.7.8-1 .8-1.6 2.1-1.6 3.5v31c0 1.2.5 2.4 1.4 3.3.8.7 1.8 1.1 2.8 1.1.4 0 .7 0 1.1-.2l20.9-5.7 4.7-1.3 6.5-1.8c.7-.4 1.3-.7 1.8-1.2z" fill="#FFF"/></g></g></svg>