<?xml version="1.0" encoding="UTF-8"?>
<svg width="150px" height="150px" viewBox="0 0 150 150" version="1.1" xmlns="http://www.w3.org/2000/svg" xmlns:xlink="http://www.w3.org/1999/xlink">
    <!-- Generator: Sketch 41.2 (35397) - http://www.bohemiancoding.com/sketch -->
    <desc>Created with Sketch.</desc>
    <defs></defs>
    <g id="slices" stroke="none" stroke-width="1" fill="none" fill-rule="evenodd">
        <g id="svg" transform="translate(-355.000000, -127.000000)" fill="#383737">
            <g id="u_img_logo_novemberfive" transform="translate(355.000000, 127.000000)">
                <path d="M144.103947,45.8049343 C140.325542,36.8732843 134.918903,28.8527915 128.033005,21.9669179 C121.147108,15.0815688 113.127111,9.6744243 104.194905,5.89655715 C94.9448163,1.98387858 85.1219077,0 75,0 C64.8775677,0 55.0551837,1.98387858 45.80457,5.89655715 C36.8728886,9.6744243 28.8528924,15.0815688 21.9669947,21.9669179 C15.081097,28.8527915 9.67393357,36.8732843 5.89657777,45.8049343 C1.98388552,55.0549912 0,64.8778654 0,75.0002623 C0,85.1221346 1.98388552,94.9450088 5.89657777,104.195066 C9.67393357,113.12724 15.081097,121.147208 21.9669947,128.033082 C28.8528924,134.918956 36.8728886,140.325576 45.80457,144.103443 C55.0551837,148.016121 64.8775677,150 75,150 C85.1219077,150 94.9448163,148.016121 104.194905,144.103443 C113.127111,140.325576 121.147108,134.918956 128.033005,128.033082 C134.918903,121.147208 140.325542,113.12724 144.103947,104.195066 C148.016639,94.9450088 150,85.1221346 150,75.0002623 C150,64.8778654 148.016639,55.0549912 144.103947,45.8049343 Z M119.151682,119.15179 C107.358526,130.944904 91.6783818,137.439982 75,137.439982 C58.3216182,137.439982 42.6414738,130.944904 30.8483183,119.15179 C19.0546382,107.358151 12.5600621,91.6780612 12.5600621,75.0002623 C12.5600621,58.3219388 19.0546382,42.6418492 30.8483183,30.8487349 C42.6414738,19.0550961 58.3216182,12.5605427 75,12.5605427 C91.6783818,12.5605427 107.358526,19.0550961 119.151682,30.8487349 C130.945362,42.6418492 137.439938,58.3219388 137.439938,75.0002623 C137.439938,91.6780612 130.945362,107.358151 119.151682,119.15179 Z M106.453398,85.9066112 L93.8576659,78.6330891 L93.8576659,46.9251281 L81.2976038,46.9251281 L81.2976038,71.3800248 L68.7018716,64.1065028 L68.7018716,46.9251281 L56.1418095,46.9251281 L56.1418095,56.8534385 L40.4065864,47.7670438 C38.4636165,46.6450141 36.0695252,46.6450141 34.1265553,47.7665192 C32.1835855,48.8880243 30.9865398,50.9616024 30.9865398,53.2051372 L30.9865398,103.064905 L43.5466019,103.064905 L43.5466019,64.0834222 L56.1418095,71.3569443 L56.1418095,103.064905 L68.7018716,103.064905 L68.7018716,78.6100086 L81.2976038,85.8835306 L81.2976038,103.064905 L93.8576659,103.064905 L93.8576659,93.1365949 L109.592889,102.223514 C111.535859,103.345019 113.92995,103.345544 115.87292,102.223514 C117.816415,101.102009 119.01346,99.028431 119.01346,96.7848962 L119.01346,46.9251281 L106.453398,46.9251281 L106.453398,85.9066112 Z" id="novemberfive-logo-square-negative"></path>
            </g>
        </g>
    </g>
</svg>