<?xml version="1.0" encoding="UTF-8"?>
<svg width="134px" height="24px" viewBox="0 0 134 24" version="1.1" xmlns="http://www.w3.org/2000/svg" xmlns:xlink="http://www.w3.org/1999/xlink">
    <!-- Generator: Sketch 41.2 (35397) - http://www.bohemiancoding.com/sketch -->
    <desc>Created with Sketch.</desc>
    <defs></defs>
    <g id="slices" stroke="none" stroke-width="1" fill="none" fill-rule="evenodd">
        <g id="svg" transform="translate(-106.000000, -347.000000)" fill="#FFFFFF">
            <g id="u_logo_spencer" transform="translate(106.000000, 347.000000)">
                <path d="M32.0222584,0.480567256 C31.4588816,0.0377139456 30.7375143,-0.107724965 30.04799,0.0806102534 L12.9997167,4.74977122 C12.632297,4.85027114 12.3069264,5.04064904 12.0444255,5.29230738 C11.7129313,5.61055713 11.4830899,6.02726412 11.3945009,6.48768449 C11.367965,6.62495267 11.35286,6.76548915 11.35286,6.90888538 L11.35286,14.238843 C11.35286,14.4545502 11.5582068,14.6110196 11.766003,14.5538245 L13.5283928,14.0713432 C13.7733392,14.0043432 13.9431688,13.7812824 13.9431688,13.5271729 L13.9431688,7.17892785 L20.8314714,5.29230738 L22.2284826,4.90991744 L30.2851798,2.70341307 L30.2851798,18.4398214 L22.4624065,16.2974573 C22.327686,16.2602805 22.1819428,16.3048109 22.0962116,16.4151157 C21.635304,17.0111701 20.9878288,17.4626027 20.2256371,17.6713647 L19.3687328,17.9058645 C19.2507502,17.9381389 19.2507502,18.1056388 19.3687328,18.1379131 L30.04799,21.0622157 C30.2455801,21.116551 30.446028,21.1431059 30.6444346,21.1431059 C31.1845416,21.1431059 31.7107682,20.9466 32.1324843,20.5699295 C32.6223773,20.1332043 32.8758968,19.4889426 32.8758968,18.8328333 L32.8758968,2.31816337 C32.8758968,1.60976149 32.5786951,0.918518132 32.0222584,0.480567256 Z M20.8314714,15.8509271 C21.1629656,15.5326774 21.392807,15.1159704 21.4818042,14.65555 C21.5079318,14.5182818 21.5234451,14.3777454 21.5234451,14.2343491 L21.5234451,6.90888538 C21.5230368,6.69113555 21.3160571,6.53303201 21.1058114,6.59063563 L19.3475041,7.07189135 C19.1025576,7.13929983 18.9327281,7.36195209 18.9327281,7.61606165 L18.9327281,13.9643067 L16.4379484,14.6477878 L12.0444255,15.8509271 L2.59071702,18.4398214 L2.59071702,2.70341307 L10.4138986,4.84577724 C10.5482109,4.88254551 10.6943623,4.83842359 10.7796853,4.7281188 C11.2410011,4.13247292 11.888068,3.68063182 12.650668,3.47227832 L13.5075723,3.23736997 C13.6255549,3.2050956 13.6255549,3.03759574 13.5075723,3.00532137 L2.82790684,0.0806102534 C2.13879081,-0.107724965 1.41742349,0.0373054094 0.854046643,0.480567256 C0.2972017,0.918518132 0,1.61017003 0,2.31898045 L0,18.8336504 C0,19.4897596 0.253927826,20.1340213 0.743820738,20.5703381 C1.16594513,20.9466 1.69217177,21.1431059 2.23146221,21.1431059 C2.42986884,21.1431059 2.63031669,21.1169596 2.82790684,21.0622157 L19.8765884,16.3934633 C20.2440081,16.2929634 20.5689704,16.1025855 20.8314714,15.8509271 Z M55.6881685,14.3875502 C55.6881685,12.8338868 54.8390208,12.1781861 51.613076,11.2802234 C47.9258153,10.2605169 46.4704252,8.6586462 46.4704252,6.15840426 C46.4704252,3.41508324 48.483885,1.57013347 52.0249943,1.57013347 C54.4026079,1.57013347 56.5854891,2.51712053 58.0894603,4.26483867 L56.003333,5.8671179 C54.9602693,4.75058829 53.6747087,4.1435034 52.2438131,4.1435034 C50.3997746,4.1435034 49.5269487,4.92053938 49.5269487,6.08527627 C49.5269487,7.27493387 50.2058586,8.05196985 52.9953905,8.82859728 C56.9737292,9.94512689 58.7442838,11.3284307 58.7442838,14.193087 C58.7442838,17.2272858 56.4642406,19.144955 52.8014746,19.144955 C49.9878563,19.144955 47.4894024,18.1256571 45.7184395,16.159372 L47.9017289,14.4598612 C49.1872896,15.8680857 50.7639283,16.5719936 52.631645,16.5719936 C54.4752753,16.5719936 55.6881685,15.6736224 55.6881685,14.3875502 Z M67.0606242,19.144955 C65.6052341,19.144955 64.247006,18.5623823 63.2766097,17.640316 L63.2766097,24 L60.4144104,24 L60.4144104,6.27973953 L63.2766097,6.27973953 L63.2766097,7.49350077 C64.247006,6.57102589 65.6052341,5.98845317 67.0606242,5.98845317 C70.5049797,5.98845317 72.4943531,8.53690239 72.4943531,12.5667041 C72.4943531,16.5965058 70.5049797,19.144955 67.0606242,19.144955 Z M69.5835727,12.5667041 C69.5835727,9.94512689 68.5645955,8.3432562 66.3331333,8.3432562 C65.265575,8.3432562 64.0285954,8.82859728 63.2766097,9.67794418 L63.2766097,15.455464 C64.0285954,16.3048109 65.265575,16.7905605 66.3331333,16.7905605 C68.5645955,16.7905605 69.5835727,15.1882813 69.5835727,12.5667041 Z M85.7831066,13.6105143 L76.5171904,13.6105143 C76.7837738,15.5281835 78.1909912,16.8146642 80.1313754,16.8146642 C81.3928496,16.8146642 82.4359133,16.2320915 83.2605664,15.212385 L85.2740262,16.6447131 C84.0852194,18.2469923 82.2901702,19.144955 80.15587,19.144955 C76.202026,19.144955 73.60641,16.4265547 73.60641,12.5667041 C73.60641,8.75546929 76.0562828,5.98845317 79.7431353,5.98845317 C83.3577285,5.98845317 85.8316877,8.73136565 85.8316877,12.6394236 C85.8316877,12.9066063 85.8316877,13.3433315 85.7831066,13.6105143 Z M76.4926958,11.4260709 L82.9454019,11.4260709 C82.7996588,9.50799309 81.4655171,8.31874403 79.7431353,8.31874403 C77.948086,8.31874403 76.7596874,9.48388945 76.4926958,11.4260709 Z M90.3031852,10.0178463 L90.3031852,18.8536687 L87.4405776,18.8536687 L87.4405776,6.27973953 L90.3031852,6.27973953 L90.3031852,7.73617131 C91.2735814,6.76508061 92.704477,5.98845317 94.5236127,5.98845317 C97.1678096,5.98845317 98.9628589,7.63893968 98.9628589,10.6972422 L98.9628589,18.8536687 L96.1006596,18.8536687 L96.1006596,11.1102723 C96.1006596,9.33804201 95.3241793,8.31874403 93.6748732,8.31874403 C92.268064,8.31874403 90.9820951,9.14398728 90.3031852,10.0178463 Z M106.738276,5.98845317 C109.23673,5.98845317 111.104447,7.1535986 112.220178,9.04675565 L110.012802,10.2123096 C109.212235,8.99813983 108.290828,8.31874403 106.859524,8.31874403 C104.773397,8.31874403 103.439255,9.89651108 103.439255,12.5667041 C103.439255,15.2368971 104.773397,16.8146642 106.859524,16.8146642 C108.290828,16.8146642 109.212235,16.1352684 110.012802,14.9210986 L112.220178,16.0866526 C111.104447,17.9802181 109.23673,19.144955 106.738276,19.144955 C102.90568,19.144955 100.528475,16.4265547 100.528475,12.5667041 C100.528475,8.70685348 102.90568,5.98845317 106.738276,5.98845317 Z M124.89534,13.6105143 L115.629424,13.6105143 C115.896007,15.5281835 117.303225,16.8146642 119.243609,16.8146642 C120.505083,16.8146642 121.548147,16.2320915 122.3728,15.212385 L124.38626,16.6447131 C123.197453,18.2469923 121.402404,19.144955 119.268104,19.144955 C115.31426,19.144955 112.718644,16.4265547 112.718644,12.5667041 C112.718644,8.75546929 115.168516,5.98845317 118.855777,5.98845317 C122.469554,5.98845317 124.94433,8.73136565 124.94433,12.6394236 C124.94433,12.9066063 124.94433,13.3433315 124.89534,13.6105143 Z M115.605338,11.4260709 L122.057636,11.4260709 C121.911892,9.50799309 120.577751,8.31874403 118.855777,8.31874403 C117.060728,8.31874403 115.871921,9.48388945 115.605338,11.4260709 Z M134,8.41556712 C133.757095,8.39146348 133.345176,8.36735984 132.981023,8.36735984 C131.501546,8.36735984 130.14291,9.11988364 129.415419,10.2605169 L129.415419,18.8536687 L126.552811,18.8536687 L126.552811,6.27973953 L129.415419,6.27973953 L129.415419,7.80889077 C130.264158,6.66784898 131.525633,5.98845317 133.199433,5.98845317 C133.466425,5.98845317 133.757095,6.01255681 134,6.03666045 L134,8.41556712 Z" id="Fill-1-Copy"></path>
            </g>
        </g>
    </g>
</svg>