<?xml version="1.0" encoding="UTF-8"?>
<svg width="65px" height="42px" viewBox="0 0 65 42" version="1.1" xmlns="http://www.w3.org/2000/svg" xmlns:xlink="http://www.w3.org/1999/xlink">
    <!-- Generator: Sketch 41.2 (35397) - http://www.bohemiancoding.com/sketch -->
    <desc>Created with Sketch.</desc>
    <defs></defs>
    <g id="slices" stroke="none" stroke-width="1" fill="none" fill-rule="evenodd">
        <g id="svg" transform="translate(-104.000000, -423.000000)" fill="#505050">
            <g id="u_logo_spencer_footer" transform="translate(104.000000, 423.000000)">
                <path d="M63.3122439,0.954629129 C62.1983733,0.0749173619 60.7721346,-0.213991668 59.4088538,0.160129295 L25.7021607,9.43524533 C24.9757233,9.63488472 24.3324227,10.0130634 23.8134236,10.5129734 C23.1580156,11.1451648 22.7035887,11.9729379 22.5284366,12.8875459 C22.4759717,13.1602241 22.446107,13.4393946 22.446107,13.724246 L22.446107,28.2849365 C22.446107,28.7134308 22.8521048,29.0242514 23.2629455,28.9106355 L26.7474233,27.9522042 C27.2317149,27.8191112 27.5674904,27.3760092 27.5674904,26.8712299 L27.5674904,14.2606754 L41.1865764,10.5129734 L43.9486527,9.75336988 L59.8778095,5.37023035 L59.8778095,36.6300251 L44.4111511,32.3742977 C44.1447908,32.3004474 43.8566373,32.3889055 43.6871352,32.6080219 C42.7758599,33.792062 41.4957159,34.6888161 39.988762,35.1035142 L38.2945486,35.5693394 C38.0612815,35.6334513 38.0612815,35.9661836 38.2945486,36.0302954 L59.4088538,41.8393146 C59.7995157,41.9472498 60.1958276,42 60.5881038,42 C61.6559667,42 62.6963864,41.6096482 63.5301751,40.8614063 C64.4987582,39.9938676 65,38.7140656 65,37.4107287 L65,4.60494604 C65,3.19773183 64.4123929,1.82460239 63.3122439,0.954629129 Z M41.1865764,31.4872821 C41.8419844,30.8550907 42.2964113,30.0273176 42.4723705,29.1127095 C42.5240283,28.8400314 42.5547001,28.5608608 42.5547001,28.2760095 L42.5547001,13.724246 C42.553893,13.291694 42.1446666,12.9776271 41.728983,13.0920546 L38.2525767,14.0480513 C37.7682851,14.1819558 37.4325096,14.6242463 37.4325096,15.1290255 L37.4325096,27.7395801 L32.5,29.0972902 L23.8134236,31.4872821 L5.12219049,36.6300251 L5.12219049,5.37023035 L20.589656,9.62595775 C20.8552092,9.69899655 21.1441699,9.61134999 21.3128648,9.39223359 C22.2249472,8.20900504 23.5042841,7.31143934 25.0120452,6.89755281 L26.7062585,6.43091603 C26.9395256,6.3668042 26.9395256,6.03407188 26.7062585,5.96996005 L5.59114616,0.160129295 C4.22867254,-0.213991668 2.80243388,0.0741058197 1.68856327,0.954629129 C0.587607103,1.82460239 0,3.19854337 0,4.60656912 L0,37.4123518 C0,38.7156886 0.502048926,39.9954907 1.47063206,40.8622178 C2.30522787,41.6096482 3.34564758,42 4.41189619,42 C4.80417236,42 5.20048429,41.9480613 5.59114616,41.8393146 L39.2986465,32.5650101 C40.0250838,32.3653708 40.6675773,31.9871921 41.1865764,31.4872821 Z" id="Fill-1-Copy"></path>
            </g>
        </g>
    </g>
</svg>