<?xml version="1.0" encoding="UTF-8" standalone="no"?>
<svg
   xmlns:dc="http://purl.org/dc/elements/1.1/"
   xmlns:cc="http://creativecommons.org/ns#"
   xmlns:rdf="http://www.w3.org/1999/02/22-rdf-syntax-ns#"
   xmlns:svg="http://www.w3.org/2000/svg"
   xmlns="http://www.w3.org/2000/svg"
   height="24"
   width="131"
   version="1.1"
   id="svg2">
  <metadata
     id="metadata9">
    <rdf:RDF>
      <cc:Work
         rdf:about="">
        <dc:format>image/svg+xml</dc:format>
        <dc:type
           rdf:resource="http://purl.org/dc/dcmitype/StillImage" />
        <dc:title></dc:title>
      </cc:Work>
    </rdf:RDF>
  </metadata>
  <defs id="defs7" />
  <path d="M 31.305342,0.48056726 C 30.754578,0.03771395 30.049361,-0.10772497 29.375274,0.08061025 L 12.708678,4.7497712 C 12.349484,4.8502711 12.031398,5.040649 11.774774,5.2923074 11.450701,5.6105571 11.226006,6.0272641 11.1394,6.4876845 11.11346,6.6249527 11.09869,6.7654891 11.09869,6.9088854 l 0,7.3299576 c 0,0.215707 0.20075,0.372177 0.403894,0.314981 l 1.722933,-0.482481 c 0.239463,-0.067 0.40549,-0.290061 0.40549,-0.54417 l 0,-6.3482452 6.734087,-1.8866204 1.365735,-0.38239 7.876323,-2.2065043 0,15.7364079 -7.647636,-2.142364 c -0.131705,-0.03718 -0.274185,0.0074 -0.357997,0.117659 -0.450589,0.596054 -1.083568,1.047487 -1.828696,1.256249 l -0.83772,0.234499 c -0.115341,0.03227 -0.115341,0.199775 0,0.232049 l 10.44017,2.924303 c 0.193166,0.05434 0.389126,0.08089 0.583091,0.08089 0.528015,0 1.042461,-0.196506 1.454735,-0.573177 0.478925,-0.436725 0.726769,-1.080986 0.726769,-1.737096 l 0,-16.5146696 c 0,-0.7084019 -0.290548,-1.39964527 -0.834527,-1.83759614 z M 20.365095,15.850927 c 0.324073,-0.31825 0.548769,-0.734957 0.635773,-1.195377 0.02554,-0.137268 0.04071,-0.277805 0.04071,-0.421201 l 0,-7.3254636 c -4e-4,-0.2177499 -0.202746,-0.3758534 -0.408285,-0.3182498 l -1.718942,0.4812557 c -0.239463,0.067408 -0.40549,0.2900608 -0.40549,0.5441703 l 0,6.3482454 -2.438926,0.683481 -4.295161,1.203139 -9.2420581,2.588894 0,-15.7364079 7.6480361,2.1423641 c 0.131305,0.036768 0.274184,-0.00735 0.357597,-0.1176584 0.450988,-0.5956459 1.083568,-1.047487 1.829095,-1.2558405 L 13.205164,3.23737 c 0.115341,-0.032274 0.115341,-0.1997743 0,-0.2320486 L 2.7645955,0.08061025 C 2.0909074,-0.10772497 1.3856901,0.03730541 0.8349262,0.48056726 0.29054793,0.91851813 0,1.61017 0,2.3189805 L 0,18.83365 c 0,0.65611 0.24824288,1.300371 0.72716804,1.736688 0.41267386,0.376262 0.92711926,0.572768 1.45433606,0.572768 0.1939647,0 0.3899249,-0.02615 0.5830914,-0.08089 L 19.43159,16.393463 c 0.359194,-0.1005 0.676881,-0.290878 0.933505,-0.542536 z M 54.441418,14.38755 c 0,-1.553663 -0.830136,-2.209364 -3.983859,-3.107327 -3.60471,-1.019706 -5.027517,-2.6215768 -5.027517,-5.1218187 0,-2.7433211 1.968383,-4.5882708 5.430214,-4.5882708 2.324383,0 4.458394,0.946987 5.928694,2.6947052 L 54.749527,5.8671179 C 53.729815,4.7505883 52.473036,4.1435034 51.074176,4.1435034 c -1.802755,0 -2.65604,0.777036 -2.65604,1.9417729 0,1.1896576 0.663711,1.9666936 3.39079,2.743321 3.889272,1.1165296 5.620187,2.4998337 5.620187,5.3644897 0,3.034199 -2.228997,4.951868 -5.809761,4.951868 -2.750627,0 -5.193145,-1.019298 -6.92446,-2.985583 l 2.13441,-1.699511 c 1.25678,1.408225 2.79812,2.112133 4.624023,2.112133 1.802355,0 2.988093,-0.898372 2.988093,-2.184444 z m 11.117849,4.757405 c -1.422807,0 -2.750627,-0.582573 -3.699298,-1.504639 l 0,6.359684 -2.79812,0 0,-17.7202605 2.79812,0 0,1.2137613 c 0.948671,-0.9224749 2.276491,-1.5050476 3.699298,-1.5050476 3.367243,0 5.312078,2.5484492 5.312078,6.5782508 0,4.029802 -1.944835,6.578251 -5.312078,6.578251 z m 2.466465,-6.578251 c 0,-2.6215771 -0.996165,-4.2234478 -3.177669,-4.2234478 -1.043658,0 -2.252944,0.4853411 -2.988094,1.334688 l 0,5.7775198 c 0.73515,0.849347 1.944436,1.335097 2.988094,1.335097 2.181504,0 3.177669,-1.60228 3.177669,-4.223857 z m 15.836857,1.04381 -9.05847,0 c 0.260615,1.91767 1.636328,3.20415 3.53327,3.20415 1.233233,0 2.252944,-0.582573 3.059135,-1.602279 l 1.968382,1.432328 c -1.162192,1.602279 -2.917053,2.500242 -5.00357,2.500242 -3.865326,0 -6.402831,-2.7184 -6.402831,-6.578251 0,-3.8112347 2.395025,-6.5782508 5.999336,-6.5782508 3.53367,0 5.952242,2.7429125 5.952242,6.6509708 0,0.267182 0,0.703908 -0.04749,0.97109 z m -9.082416,-2.184443 6.308242,0 c -0.14248,-1.9180779 -1.446753,-3.107327 -3.130574,-3.107327 -1.754861,0 -2.916654,1.1651455 -3.177668,3.107327 z m 13.501299,-1.408225 0,8.835823 -2.798519,0 0,-12.5739295 2.798519,0 0,1.4564318 c 0.948671,-0.9710907 2.347532,-1.7477181 4.12594,-1.7477181 2.584999,0 4.33986,1.6504865 4.33986,4.7087888 l 0,8.156427 -2.79812,0 0,-7.743397 c 0,-1.77223 -0.759096,-2.791528 -2.371478,-2.791528 -1.375313,0 -2.632491,0.8252433 -3.296202,1.699102 z M 104.34861,5.9884532 c 2.44252,0 4.26842,1.1651454 5.35918,3.0583025 l -2.15796,1.1655543 c -0.78265,-1.2141702 -1.68342,-1.893566 -3.08268,-1.893566 -2.03943,0 -3.3437,1.5777671 -3.3437,4.24796 0,2.670193 1.30427,4.24796 3.3437,4.24796 1.39926,0 2.30003,-0.679396 3.08268,-1.893565 l 2.15796,1.165554 c -1.09076,1.893565 -2.91666,3.058302 -5.35918,3.058302 -3.74679,0 -6.070772,-2.7184 -6.070772,-6.578251 0,-3.8598505 2.323982,-6.5782508 6.070772,-6.5782508 z m 17.75057,7.6220608 -9.05847,0 c 0.26061,1.91767 1.63632,3.20415 3.53327,3.20415 1.23323,0 2.25294,-0.582573 3.05913,-1.602279 l 1.96838,1.432328 c -1.16219,1.602279 -2.91705,2.500242 -5.00357,2.500242 -3.86532,0 -6.40283,-2.7184 -6.40283,-6.578251 0,-3.8112347 2.39503,-6.5782508 5.99974,-6.5782508 3.53287,0 5.95224,2.7429125 5.95224,6.6509708 0,0.267182 0,0.703908 -0.0479,0.97109 z m -9.08202,-2.184443 6.30784,0 c -0.14248,-1.9180779 -1.44675,-3.107327 -3.13017,-3.107327 -1.75486,0 -2.91706,1.1651455 -3.17767,3.107327 z M 131,8.4155671 c -0.23747,-0.024104 -0.64016,-0.048207 -0.99616,-0.048207 -1.44636,0 -2.77458,0.7525238 -3.48578,1.8931569 l 0,8.593152 -2.79852,0 0,-12.5739292 2.79852,0 0,1.5291513 c 0.82974,-1.1410418 2.06297,-1.8204376 3.6993,-1.8204376 0.26101,0 0.54517,0.024104 0.78264,0.048207 l 0,2.3789067 z" sketch:type="MSShapeGroup" id="path6"></path>
</svg>
